#!OML:ASF I:\Actors\actors\Patient Classification 1\Patient 1\Session 1\Subject1.ASF
:FULLY-SPECIFIED
:DEGREES
442
root -0.197996 17.6102 8.21896 6.85523 3.46529 -13.8106
lowerback 0.627458 9.12846 2.45369
upperback -5.34318 12.0967 -5.2831
thorax -4.26212 5.85497 -7.21556
lowerneck -5.86481 -9.02419 -0.267269
upperneck 18.9708 -17.526 25.1585
head 9.48916 -6.22027 6.89751
rclavicle -3.97569e-015 -1.90833e-014
rhumerus 52.1787 49.9451 -63.2671
rradius 47.2079
rwrist -35.3958
rhand -17.6982 -71.4838
rfingers 7.12502
rthumb 8.5616 -258.71
lclavicle -3.97569e-015 -1.90833e-014
lhumerus -44.2293 -71.2269 112.793
lradius 104.253
lwrist 23.1669
lhand -10.1505 -20.5359
lfingers 7.12502
lthumb 15.8387 8.83625
rfemur -2.46992 15.4281 31.7032
rtibia 2.77305
rfoot -11.4892 -24.5593
rtoes 5.68639
lfemur 5.14744 -48.9525 -5.20169
ltibia -3.57349
lfoot -27.3083 55.2886
ltoes 10.8402
443
root -0.198627 17.6106 8.21853 6.8624 3.46375 -13.842
lowerback 0.686883 9.13106 2.47208
upperback -5.37522 12.1019 -5.25882
thorax -4.33012 5.85389 -7.21568
lowerneck -5.91998 -9.05372 -0.247028
upperneck 18.9832 -17.5597 25.0651
head 9.49654 -6.23655 6.85138
rclavicle 1.37161e-013 -7.31528e-014
rhumerus 51.1359 49.3781 -64.9307
rradius 46.5256
rwrist -35.0527
rhand -17.6504 -71.4297
rfingers 7.12502
rthumb 8.60768 -258.766
lclavicle 1.37161e-013 -7.31528e-014
lhumerus -44.6024 -71.3271 113.044
lradius 104.311
lwrist 23.2519
lhand -10.3274 -20.5554
lfingers 7.12502
lthumb 15.6684 8.83014
rfemur -2.49192 15.4033 31.7361
rtibia 2.7924
rfoot -11.4864 -24.5296
rtoes 5.55463
lfemur 5.11061 -48.9183 -5.12916
ltibia -3.57513
lfoot -27.3353 55.2572
ltoes 10.9624
444
root -0.199266 17.611 8.21781 6.87109 3.47147 -13.878
lowerback 0.690694 9.10951 2.46674
upperback -5.39526 12.0743 -5.21164
thorax -4.36823 5.83896 -7.16824
lowerneck -5.86005 -9.05643 -0.265248
upperneck 18.9233 -17.5348 25.0381
head 9.45659 -6.23963 6.84712
rclavicle 1.31198e-014 1.59028e-014
rhumerus 50.2173 48.9492 -66.3729
rradius 45.991
rwrist -35.1407
rhand -18.2899 -71.3982
rfingers 7.12502
rthumb 7.99051 -258.773
lclavicle 1.31198e-014 1.59028e-014
lhumerus -44.8294 -71.2326 113.231
lradius 104.317
lwrist 23.2685
lhand -10.361 -20.4883
lfingers 7.12502
lthumb 15.636 8.89978
rfemur -2.51005 15.4183 31.7756
rtibia 2.79997
rfoot -11.4904 -24.5538
rtoes 5.3804
lfemur 5.0507 -48.8611 -5.03383
ltibia -3.5696
lfoot -27.2052 55.2281
ltoes 10.7462
445
root -0.1999 17.6111 8.21708 6.86811 3.47903 -13.9028
lowerback 0.704534 9.09479 2.42428
upperback -5.37851 12.0548 -5.15897
thorax -4.38051 5.83106 -7.09313
lowerneck -5.83593 -9.07234 -0.263982
upperneck 18.7949 -17.5257 25.0488
head 9.40526 -6.24943 6.84681
rclavicle 4.37326e-014 -1.90833e-014
rhumerus 49.5608 48.5195 -67.4861
rradius 45.5199
rwrist -35.0552
rhand -18.5942 -71.2661
rfingers 7.12502
rthumb 7.69682 -258.894
lclavicle 4.37326e-014 -1.90833e-014
lhumerus -44.7395 -71.1776 113.164
lradius 104.297
lwrist 23.3128
lhand -10.2811 -20.4097
lfingers 7.12502
lthumb 15.7129 8.97241
rfemur -2.50603 15.4581 31.8073
rtibia 2.78664
rfoot -11.4882 -24.5848
rtoes 5.52401
lfemur 5.01942 -48.8351 -4.97871
ltibia -3.55447
lfoot -27.1117 55.21
ltoes 10.5986
446
root -0.199737 17.6109 8.21685 6.86326 3.47548 -13.9423
lowerback 0.742376 9.10508 2.42505
upperback -5.3541 12.0708 -5.11195
thorax -4.3837 5.83975 -7.04939
lowerneck -5.88912 -9.12651 -0.285337
upperneck 18.6888 -17.5826 25.0541
head 9.38948 -6.28369 6.83655
rclavicle -7.33515e-014 -1.90833e-014
rhumerus 49.0746 48.0442 -68.413
rradius 44.9371
rwrist -34.404
rhand -18.6297 -71.0906
rfingers 7.12502
rthumb 7.66256 -259.068
lclavicle -7.33515e-014 -1.90833e-014
lhumerus -44.5773 -71.1754 113.103
lradius 104.257
lwrist 23.3598
lhand -10.3434 -20.4295
lfingers 7.12502
lthumb 15.653 8.95727
rfemur -2.49686 15.4433 31.8476
rtibia 2.76111
rfoot -11.443 -24.5492
rtoes 5.61509
lfemur 5.02262 -48.8515 -4.93523
ltibia -3.55675
lfoot -27.1044 55.2398
ltoes 10.6082
447
root -0.198915 17.611 8.21673 6.8761 3.46668 -13.9741
lowerback 0.772946 9.12877 2.46344
upperback -5.3514 12.1053 -5.09103
thorax -4.3903 5.85566 -7.05303
lowerneck -5.97123 -9.19266 -0.357078
upperneck 18.6394 -17.6737 25.0787
head 9.41205 -6.32795 6.83876
rclavicle 8.54774e-015 4.77083e-014
rhumerus 48.5631 47.5446 -69.3404
rradius 44.3212
rwrist -33.6299
rhand -18.9782 -71.0073
rfingers 7.12502
rthumb 7.32622 -259.14
lclavicle 8.54774e-015 4.77083e-014
lhumerus -44.6028 -71.1568 113.218
lradius 104.245
lwrist 23.3801
lhand -10.4754 -20.4501
lfingers 7.12502
lthumb 15.5258 8.94663
rfemur -2.50256 15.4109 31.8716
rtibia 2.7289
rfoot -11.3971 -24.5155
rtoes 5.47143
lfemur 5.01306 -48.88 -4.89245
ltibia -3.56206
lfoot -27.1791 55.2674
ltoes 10.7066
448
root -0.19836 17.6112 8.21646 6.88898 3.46153 -13.9644
lowerback 0.777892 9.14832 2.45813
upperback -5.33918 12.1315 -5.09035
thorax -4.37796 5.86967 -7.0488
lowerneck -6.0336 -9.2465 -0.363272
upperneck 18.5614 -17.7393 25.0824
head 9.40831 -6.36158 6.82508
rclavicle 0 6.36111e-015
rhumerus 48.057 47.0282 -70.2884
rradius 43.7755
rwrist -33.1698
rhand -19.0067 -70.9396
rfingers 7.12502
rthumb 7.29869 -259.206
lclavicle 0 6.36111e-015
lhumerus -44.6426 -71.1197 113.289
lradius 104.275
lwrist 23.3649
lhand -10.3583 -20.3143
lfingers 7.12502
lthumb 15.6386 9.07358
rfemur -2.50602 15.3864 31.8505
rtibia 2.69502
rfoot -11.3868 -24.4915
rtoes 5.38701
lfemur 4.99706 -48.9065 -4.90054
ltibia -3.5483
lfoot -27.2522 55.2846
ltoes 10.8117
449
root -0.197999 17.6118 8.21636 6.89477 3.45599 -13.9512
lowerback 0.794468 9.17437 2.44936
upperback -5.34416 12.1655 -5.10586
thorax -4.38653 5.88645 -7.06375
lowerneck -5.99542 -9.2992 -0.283752
upperneck 18.4318 -17.7879 25.0852
head 9.35598 -6.39389 6.80169
rclavicle -1.08934e-013 1.27222e-014
rhumerus 47.4387 46.4737 -71.408
rradius 43.2739
rwrist -32.9728
rhand -19.0305 -70.9938
rfingers 7.12502
rthumb 7.27574 -259.151
lclavicle -1.08934e-013 1.27222e-014
lhumerus -44.7502 -71.1569 113.375
lradius 104.304
lwrist 23.3649
lhand -10.144 -20.2102
lfingers 7.12502
lthumb 15.845 9.16143
rfemur -2.49824 15.3598 31.8304
rtibia 2.66201
rfoot -11.387 -24.4617
rtoes 5.35419
lfemur 4.98811 -48.9033 -4.91854
ltibia -3.53928
lfoot -27.1698 55.3192
ltoes 10.6903
450
root -0.197856 17.6125 8.21632 6.8958 3.45994 -13.9713
lowerback 0.845493 9.20365 2.46409
upperback -5.36907 12.2054 -5.11307
thorax -4.43178 5.90353 -7.09152
lowerneck -5.96452 -9.35778 -0.270179
upperneck 18.344 -17.8675 25.168
head 9.34103 -6.434 6.81734
rclavicle -2.94201e-014 3.18055e-015
rhumerus 46.6204 45.8225 -72.7689
rradius 42.8209
rwrist -32.6726
rhand -19.3289 -70.9286
rfingers 7.12502
rthumb 6.98768 -259.207
lclavicle -2.94201e-014 3.18055e-015
lhumerus -44.9335 -71.2344 113.529
lradius 104.332
lwrist 23.406
lhand -10.1705 -20.0818
lfingers 7.12502
lthumb 15.8194 9.29182
rfemur -2.48684 15.3431 31.8536
rtibia 2.63401
rfoot -11.3493 -24.4686
rtoes 5.19372
lfemur 4.9672 -48.8602 -4.87772
ltibia -3.52957
lfoot -27.1235 55.2742
ltoes 10.6227
451
root -0.197749 17.6129 8.21623 6.89036 3.46489 -13.9882
lowerback 0.871841 9.21648 2.41192
upperback -5.35794 12.2221 -5.06727
thorax -4.45301 5.91365 -7.02156
lowerneck -6.04964 -9.40156 -0.378404
upperneck 18.3433 -17.955 25.283
head 9.39626 -6.46619 6.86273
rclavicle -3.97569e-014 -5.40694e-014
rhumerus 45.8726 45.182 -74.072
rradius 42.3767
rwrist -32.1732
rhand -19.4093 -70.6611
rfingers 7.12502
rthumb 6.91009 -259.472
lclavicle -3.97569e-014 -5.40694e-014
lhumerus -44.9147 -71.2437 113.532
lradius 104.351
lwrist 23.4286
lhand -10.3568 -19.8532
lfingers 7.12502
lthumb 15.64 9.53462
rfemur -2.48101 15.335 31.8697
rtibia 2.62815
rfoot -11.3118 -24.4618
rtoes 5.14095
lfemur 4.96463 -48.8606 -4.85888
ltibia -3.50835
lfoot -27.2199 55.2196
ltoes 10.7521
452
root -0.197629 17.6131 8.21636 6.88575 3.46065 -13.9829
lowerback 0.874241 9.22146 2.29583
upperback -5.32397 12.2263 -4.99921
thorax -4.45606 5.92112 -6.8887
lowerneck -6.17274 -9.44482 -0.45063
upperneck 18.3582 -18.0338 25.3103
head 9.44904 -6.49446 6.86859
rclavicle -3.53837e-014 0
rhumerus 45.2357 44.5826 -75.2716
rradius 41.8562
rwrist -31.5382
rhand -19.4305 -70.5144
rfingers 7.12502
rthumb 6.88959 -259.618
lclavicle -3.53837e-014 0
lhumerus -44.7336 -71.215 113.432
lradius 104.319
lwrist 23.3942
lhand -10.4659 -19.7279
lfingers 7.12502
lthumb 15.5349 9.66807
rfemur -2.47765 15.3408 31.8603
rtibia 2.63086
rfoot -11.3143 -24.4431
rtoes 5.33042
lfemur 5.00443 -48.9296 -4.90106
ltibia -3.50643
lfoot -27.3291 55.2534
ltoes 10.8651
